<?xml version="1.0" encoding="utf-8"?>
<!-- Generator: Adobe Illustrator 23.0.1, SVG Export Plug-In . SVG Version: 6.00 Build 0)  -->
<svg version="1.1" id="Layer_1" xmlns:vectornator="http://vectornator.io"
	 xmlns="http://www.w3.org/2000/svg" xmlns:xlink="http://www.w3.org/1999/xlink" x="0px" y="0px" viewBox="0 0 201.6 208.8"
	 style="enable-background:new 0 0 201.6 208.8;" xml:space="preserve">
<style type="text/css">
	.st0{display:none;}
	.st1{display:inline;fill:#FFFFFF;}
	.st2{fill:url(#SVGID_1_);}
	.st3{fill:url(#SVGID_2_);}
	.st4{fill:#212121;}
	
		.st5{opacity:0.9923;fill:#243947;stroke:#000000;stroke-width:0.1721;stroke-linecap:round;stroke-linejoin:round;enable-background:new    ;}
	.st6{opacity:0.9923;stroke:#000000;stroke-width:0.1721;stroke-linecap:round;stroke-linejoin:round;enable-background:new    ;}
	
		.st7{opacity:0.9923;fill:#273742;stroke:#000000;stroke-width:0.1721;stroke-linecap:round;stroke-linejoin:round;enable-background:new    ;}
	
		.st8{opacity:0.9923;fill:#181A1C;stroke:#000000;stroke-width:0.1721;stroke-linecap:round;stroke-linejoin:round;enable-background:new    ;}
	
		.st9{opacity:0.9923;fill:#4EB5FF;stroke:#000000;stroke-width:0.1721;stroke-linecap:round;stroke-linejoin:round;enable-background:new    ;}
	
		.st10{opacity:0.9923;fill:#5A6C78;stroke:#000000;stroke-width:0.1721;stroke-linecap:round;stroke-linejoin:round;enable-background:new    ;}
	
		.st11{opacity:0.9923;fill:#1C2933;stroke:#000000;stroke-width:0.1721;stroke-linecap:round;stroke-linejoin:round;enable-background:new    ;}
	
		.st12{opacity:0.9923;fill:#1C2A33;stroke:#000000;stroke-width:0.1721;stroke-linecap:round;stroke-linejoin:round;enable-background:new    ;}
	
		.st13{opacity:0.9923;fill:#2E5B82;stroke:#000000;stroke-width:0.1721;stroke-linecap:round;stroke-linejoin:round;enable-background:new    ;}
	
		.st14{opacity:0.9923;fill:#3282BC;stroke:#000000;stroke-width:0.1721;stroke-linecap:round;stroke-linejoin:round;enable-background:new    ;}
	
		.st15{opacity:0.9923;fill:#88A9C0;stroke:#000000;stroke-width:0.1721;stroke-linecap:round;stroke-linejoin:round;enable-background:new    ;}
	
		.st16{opacity:0.9923;fill:#387AB1;fill-opacity:0.6935;stroke:#000000;stroke-width:0.1721;stroke-linecap:round;stroke-linejoin:round;enable-background:new    ;}
	
		.st17{opacity:0.9923;fill:#ACD1EC;stroke:#000000;stroke-width:0.1721;stroke-linecap:round;stroke-linejoin:round;enable-background:new    ;}
	.st18{opacity:0.9923;}
	.st19{opacity:0.9923;fill:#4EB5FF;enable-background:new    ;}
	.st20{opacity:0.9923;enable-background:new    ;}
	.st21{opacity:0.9923;fill:#212121;enable-background:new    ;}
	.st22{display:inline;fill:#19191A;stroke:#373839;stroke-width:0.1721;stroke-linecap:round;stroke-linejoin:round;}
	.st23{fill:url(#SVGID_3_);stroke:#85C9FF;stroke-width:0.1721;stroke-linecap:round;stroke-linejoin:round;}
	.st24{fill:url(#SVGID_4_);stroke:#85C9FF;stroke-width:0.1721;stroke-linecap:round;stroke-linejoin:round;}
	.st25{fill:#FFFFFF;stroke:#85C9FF;stroke-width:0.1721;stroke-linecap:round;stroke-linejoin:round;}
	
		.st26{opacity:0.9923;fill:#273742;stroke:#85C9FF;stroke-width:0.1721;stroke-linecap:round;stroke-linejoin:round;enable-background:new    ;}
	
		.st27{opacity:0.9923;fill:#181B1D;stroke:#85C9FF;stroke-width:0.1721;stroke-linecap:round;stroke-linejoin:round;enable-background:new    ;}
	
		.st28{opacity:0.9923;fill:#181A1C;stroke:#85C9FF;stroke-width:0.1721;stroke-linecap:round;stroke-linejoin:round;enable-background:new    ;}
	
		.st29{opacity:0.9923;fill:#4EB5FF;stroke:#85C9FF;stroke-width:0.1721;stroke-linecap:round;stroke-linejoin:round;enable-background:new    ;}
	
		.st30{opacity:0.9923;fill:#BFE4FF;stroke:#85C9FF;stroke-width:0.1721;stroke-linecap:round;stroke-linejoin:round;enable-background:new    ;}
	
		.st31{opacity:0.9923;fill:#1C2933;stroke:#85C9FF;stroke-width:0.1721;stroke-linecap:round;stroke-linejoin:round;enable-background:new    ;}
	
		.st32{opacity:0.9923;fill:#1C2A33;stroke:#85C9FF;stroke-width:0.1721;stroke-linecap:round;stroke-linejoin:round;enable-background:new    ;}
	
		.st33{opacity:0.9923;fill:#2E5B82;stroke:#85C9FF;stroke-width:0.1721;stroke-linecap:round;stroke-linejoin:round;enable-background:new    ;}
	
		.st34{opacity:0.9923;fill:#1F3544;stroke:#85C9FF;stroke-width:0.1721;stroke-linecap:round;stroke-linejoin:round;enable-background:new    ;}
	
		.st35{opacity:0.9923;fill:#91D1FF;stroke:#85C9FF;stroke-width:0.1721;stroke-linecap:round;stroke-linejoin:round;enable-background:new    ;}
	
		.st36{opacity:0.9923;fill:#387AB1;fill-opacity:0.6935;stroke:#85C9FF;stroke-width:0.1721;stroke-linecap:round;stroke-linejoin:round;enable-background:new    ;}
	
		.st37{opacity:0.9923;fill:#E9EBEC;stroke:#85C9FF;stroke-width:0.1721;stroke-linecap:round;stroke-linejoin:round;enable-background:new    ;}
	
		.st38{opacity:0.9923;fill:#B7D1E3;stroke:#85C9FF;stroke-width:0.1721;stroke-linecap:round;stroke-linejoin:round;enable-background:new    ;}
	.st39{opacity:0.9923;fill:#85C9FF;enable-background:new    ;}
	
		.st40{opacity:0.9923;fill:#1E72B5;stroke:#85C9FF;stroke-width:0.1721;stroke-linecap:round;stroke-linejoin:round;enable-background:new    ;}
	.st41{fill:#1E72B5;stroke:#85C9FF;stroke-width:0.1721;stroke-linecap:round;stroke-linejoin:round;}
</style>
<g class="st0">
	
		<path vectornator:shadowAngle="0.785398" vectornator:shadowColor="#000000" vectornator:shadowOffset="10" vectornator:shadowOpacity="0.333" vectornator:shadowRadius="15.2326" class="st1" d="
		M148.8,66.8h73.6c5.1,0,9.3,4.2,9.3,9.3v73.6c0,5.1-4.2,9.3-9.3,9.3h-73.6c-5.1,0-9.3-4.2-9.3-9.3V76.1
		C139.5,71,143.7,66.8,148.8,66.8z"/>
	
		<path vectornator:shadowAngle="3.92699" vectornator:shadowColor="#ffffff" vectornator:shadowOffset="10" vectornator:shadowOpacity="1" vectornator:shadowRadius="15.2326" class="st1" d="
		M148.8,66.8h73.6c5.1,0,9.3,4.2,9.3,9.3v73.6c0,5.1-4.2,9.3-9.3,9.3h-73.6c-5.1,0-9.3-4.2-9.3-9.3V76.1
		C139.5,71,143.7,66.8,148.8,66.8z"/>
</g>
<g vectornator:shadowAngle="1.02114" vectornator:shadowColor="#000000" vectornator:shadowOffset="0.193798" vectornator:shadowOpacity="1" vectornator:shadowRadius="0.678295">
	<g>
		
			<linearGradient id="SVGID_1_" gradientUnits="userSpaceOnUse" x1="-16.6978" y1="-214.5782" x2="26.9342" y2="-194.3032" gradientTransform="matrix(0.3944 0 0 -0.3944 118.351 48.2146)">
			<stop  offset="0" style="stop-color:#DCEDFF"/>
			<stop  offset="1" style="stop-color:#212121"/>
		</linearGradient>
		<path class="st2" d="M127,134.9c0.1-9.2,2.1-11.6,1.5-20.5c-0.3,7.9-5.2,13.9-11.3,18.1l0.1,6l6.6-0.8
			C125.4,136.6,125.8,136.3,127,134.9z"/>
		
			<linearGradient id="SVGID_2_" gradientUnits="userSpaceOnUse" x1="-132.875" y1="-116.8947" x2="-46.182" y2="-116.0677" gradientTransform="matrix(0.3944 0 0 -0.3944 118.767 48.8816)">
			<stop  offset="0" style="stop-color:#CDE5FF"/>
			<stop  offset="0.7038" style="stop-color:#212121"/>
		</linearGradient>
		<path class="st3" d="M83.6,97.3c7.1-12.4,16.8-16.7,17.3-17.9C89,80.2,77.5,88.1,72.8,99.8l0.6,5.9l5.4,4.4
			C79.2,105.3,81.3,101.3,83.6,97.3z"/>
		<path class="st4" d="M131.6,95.8c-5.5-0.8-17.2-7.9-24.6-7.6c11.4,3.9,15.9,8,19.9,17.4c3.4,6.5,3.7,18.1,2.1,27.3
			c5.9-6.3,8.7-16.9,6.7-26.5c-0.6-3.1-1.7-6.2-3.3-9.1C132.2,97,131.8,96.2,131.6,95.8z"/>
		<path class="st4" d="M104,79.3c-2.4,2.7-4.4,3.5-7.1,5.4c-3.7,2.6-8.1,6.2-11.6,11.3c19-17.6,39.7-2.6,45.3-2.2
			c-4.2-6.9-14.3-13.9-25.3-14.5C104.9,79.2,104.4,79.3,104,79.3z"/>
	</g>
	<g>
		<g>
			<path class="st5" d="M104,146l14.1-4l-6.7-0.6L104,146z"/>
			<path class="st6" d="M94.4,144.8l9.6,1.2l-5.4-2.4L94.4,144.8z"/>
			<path class="st7" d="M85.6,141.1l-4.7-8.8l-3.3,1.9L85.6,141.1z"/>
			<path class="st7" d="M73,127.4l4.7,6.8l3.3-1.9L73,127.4z"/>
			<path class="st8" d="M71,121.4l2.3,2.5l-0.3,3.5L71,121.4z"/>
			<path class="st7" d="M70,113.3l3.6,7l-2.5,1.1L70,113.3z"/>
			<path class="st7" d="M71.3,104.2l2.3,16.1l-3.6-7L71.3,104.2z"/>
			<path class="st9" d="M73,99.6l-1.8,4.6l1.8,1.3L73,99.6z"/>
			<path class="st10" d="M73.6,120.2l6.5-9.4l-8.9-6.6L73.6,120.2z"/>
			<path class="st11" d="M73,105.5l0-2.1l7.1,7.4L73,105.5z"/>
			<path class="st12" d="M73.3,123.9l0.3-3.7l-2.5,1.1L73.3,123.9z"/>
			<path class="st13" d="M73,127.4l8,4.9l-7.4-12.1L73,127.4z"/>
			<path class="st14" d="M84.5,119.8L81,132.3l-7.4-12.1L84.5,119.8z"/>
			<path class="st15" d="M80.1,110.8l-6.5,9.4l10.9-0.5L80.1,110.8z"/>
			<path class="st15" d="M96.4,132.4l-11.9-12.6L81,132.3L96.4,132.4z"/>
			<path class="st16" d="M85.6,141.1l10.7-8.7L81,132.3L85.6,141.1z"/>
			<path class="st14" d="M84.5,119.8l1.7-9.1l-6.1,0.1L84.5,119.8z"/>
			<path class="st10" d="M100,110.5l-15.6,9.2l1.7-9.1L100,110.5z"/>
			<path class="st15" d="M93.9,121l-9.4-1.2l15.6-9.2L93.9,121z"/>
			<path class="st14" d="M96.4,132.4L93.9,121l-9.4-1.2L96.4,132.4z"/>
			<path class="st5" d="M85.6,141.1l11.4,0.5l-2.6,3.2L85.6,141.1z"/>
			<path class="st16" d="M96.4,132.4l0.7,9.2l-11.4-0.5L96.4,132.4z"/>
			<path class="st6" d="M98.6,143.6l-4.2,1.2l2.6-3.2L98.6,143.6z"/>
			<path class="st5" d="M98.6,143.6l8.9-2.6l-3.5,5L98.6,143.6z"/>
			<path class="st16" d="M106.4,130.1l-9.4,11.5l10.5-0.6L106.4,130.1z"/>
			<path class="st5" d="M97.1,141.6l1.5,2l8.9-2.6L97.1,141.6z"/>
			<path class="st10" d="M96.4,132.4l5,3.9l-4.3,5.3L96.4,132.4z"/>
			<path class="st15" d="M106.4,130.1l-5,6.2l-5-3.9L106.4,130.1z"/>
			<path class="st17" d="M96.4,132.4l3.7-21.9l16,10.6L96.4,132.4z"/>
			<path class="st10" d="M93.9,121l2.5,11.4l3.7-21.9L93.9,121z"/>
			<path class="st10" d="M106.4,130.1l9.6-8.9l-19.7,11.3L106.4,130.1z"/>
			<path class="st14" d="M107.5,141l10.6,1l-11.7-11.9L107.5,141z"/>
			<path class="st6" d="M104,146l7.4-4.6l-3.9-0.4L104,146z"/>
			<path class="st15" d="M118.1,142l-2-20.9l-9.6,8.9L118.1,142z"/>
			<g class="st18">
				<path class="st19" d="M118.1,142l-0.4-4.1l7.1-0.6L118.1,142z"/>
				<path class="st20" d="M124.8,137.3c0,0-0.4,0-0.5,0c-0.4,0-0.9,0.1-1.3,0.1c-0.9,0.1-2.6,0.2-3.5,0.3c-0.5,0-1.4-0.1-1.7,0.3
					c-0.2,0.2,0,0,0.3,4c0,0,0,0.1,0.1,0.1c0,0,0.1-0.1,0.1-0.1c0-0.1,0,0,0-0.1c-0.3-3-0.2-2.1-0.3-3.2c0-0.2-0.1-0.5,0-0.7
					c0.3-0.4,1.1-0.2,1.6-0.3c1.2-0.1,2.3-0.2,3.5-0.3c0.4,0,0.8-0.1,1.3-0.1C124.4,137.4,124.6,137.4,124.8,137.3
					C124.7,137.3,124.8,137.3,124.8,137.3z M118.2,142c3-2.1,2.2-1.5,3.3-2.3c0.5-0.4,1.1-0.8,1.6-1.1c0.5-0.3,1-0.7,1.4-1
					c0,0,0.1-0.1,0.2-0.1c-0.1,0-0.3,0.1-0.4,0.2c-0.4,0.3-0.8,0.6-1.2,0.9C122.5,138.9,122.8,138.7,118.2,142z"/>
			</g>
		</g>
		<g>
			<path class="st21" d="M99.1,109.6c-0.5,0.5-0.4,1.3,0.1,1.8c0.5,0.5,1.3,0.4,1.8-0.1c0.5-0.5,0.4-1.3-0.1-1.8
				C100.3,109.1,99.5,109.1,99.1,109.6z"/>
			<path class="st21" d="M115.5,120.6c-0.3,0.3-0.3,0.9,0.1,1.2c0.3,0.3,0.9,0.3,1.2-0.1c0.3-0.3,0.3-0.9-0.1-1.2
				C116.3,120.2,115.8,120.2,115.5,120.6z"/>
			<path class="st21" d="M117.2,137.3c-0.3,0.3-0.3,0.9,0.1,1.2c0.3,0.3,0.9,0.3,1.2-0.1c0.3-0.3,0.3-0.9-0.1-1.2
				C118,136.9,117.5,137,117.2,137.3z"/>
			<path class="st21" d="M106.1,129.7c-0.2,0.2-0.2,0.5,0,0.7c0.2,0.2,0.5,0.2,0.7,0c0.2-0.2,0.2-0.5,0-0.7
				C106.6,129.5,106.3,129.5,106.1,129.7z"/>
			<path class="st21" d="M117.6,141.6c-0.2,0.3-0.2,0.6,0,0.9c0.3,0.2,0.7,0.2,0.9,0c0.2-0.3,0.2-0.7,0-0.9
				C118.2,141.3,117.8,141.4,117.6,141.6z"/>
			<path class="st4" d="M124.4,137c-0.2,0.2-0.2,0.5,0,0.7c0.2,0.2,0.5,0.2,0.7,0c0.2-0.2,0.2-0.5,0-0.7
				C124.9,136.8,124.6,136.8,124.4,137z"/>
			<path class="st21" d="M95.3,131.3c-0.5,0.6-0.5,1.5,0.1,2.1c0.6,0.5,1.5,0.5,2.1-0.1c0.5-0.6,0.5-1.5-0.1-2.1
				C96.8,130.7,95.9,130.8,95.3,131.3z"/>
			<path class="st21" d="M96.6,141.1c-0.2,0.3-0.2,0.7,0,0.9c0.3,0.2,0.7,0.2,0.9,0s0.2-0.7,0-0.9C97.2,140.8,96.8,140.9,96.6,141.1
				z"/>
			<path class="st21" d="M103.6,145.7c-0.2,0.2-0.2,0.5,0,0.7c0.2,0.2,0.5,0.2,0.7,0s0.2-0.5,0-0.7
				C104.1,145.4,103.8,145.5,103.6,145.7z"/>
			<path class="st21" d="M107.2,140.6c-0.2,0.2-0.2,0.5,0,0.7c0.2,0.2,0.5,0.2,0.7,0c0.2-0.2,0.2-0.5,0-0.7
				C107.7,140.4,107.4,140.4,107.2,140.6z"/>
			<path class="st21" d="M111.2,141.2c-0.1,0.1-0.1,0.3,0,0.5c0.1,0.1,0.3,0.1,0.5,0c0.1-0.1,0.1-0.3,0-0.5
				C111.5,141,111.3,141.1,111.2,141.2z"/>
			<path class="st21" d="M94.1,144.4c-0.2,0.2-0.2,0.5,0,0.7c0.2,0.2,0.5,0.2,0.7,0c0.2-0.2,0.2-0.5,0-0.7
				C94.6,144.2,94.3,144.2,94.1,144.4z"/>
			<path class="st21" d="M85.3,140.7c-0.2,0.2-0.2,0.5,0,0.7c0.2,0.2,0.5,0.2,0.7,0c0.2-0.2,0.2-0.5,0-0.7
				C85.8,140.5,85.5,140.5,85.3,140.7z"/>
			<path class="st21" d="M77.3,133.8c-0.2,0.2-0.2,0.5,0,0.7c0.2,0.2,0.5,0.2,0.7,0c0.2-0.2,0.2-0.5,0-0.7
				C77.8,133.6,77.5,133.6,77.3,133.8z"/>
			<path class="st21" d="M72.6,127c-0.2,0.2-0.2,0.5,0,0.7c0.2,0.2,0.5,0.2,0.7,0c0.2-0.2,0.2-0.5,0-0.7
				C73.1,126.8,72.8,126.8,72.6,127z"/>
			<path class="st21" d="M73.2,119.9c-0.2,0.2-0.2,0.5,0,0.7c0.2,0.2,0.5,0.2,0.7,0c0.2-0.2,0.2-0.5,0-0.7
				C73.7,119.7,73.4,119.7,73.2,119.9z"/>
			<path class="st21" d="M70.8,121.1c-0.2,0.2-0.1,0.4,0,0.6c0.2,0.2,0.4,0.1,0.6,0c0.2-0.2,0.1-0.4,0-0.6
				C71.2,120.9,70.9,120.9,70.8,121.1z"/>
			<path class="st21" d="M73.1,123.6c-0.1,0.1-0.1,0.3,0,0.4c0.1,0.1,0.3,0.1,0.4,0c0.1-0.1,0.1-0.3,0-0.4
				C73.4,123.5,73.2,123.5,73.1,123.6z"/>
			<path class="st21" d="M69.8,113.1c-0.1,0.1-0.1,0.4,0,0.5c0.1,0.1,0.4,0.1,0.5,0c0.1-0.1,0.1-0.4,0-0.5
				C70.1,112.9,69.9,112.9,69.8,113.1z"/>
			<path class="st21" d="M70.8,103.7c-0.3,0.3-0.2,0.7,0,1c0.3,0.3,0.7,0.2,1,0c0.3-0.3,0.2-0.7,0-1C71.5,103.4,71,103.4,70.8,103.7
				z"/>
			<path class="st21" d="M72.7,99.4c-0.1,0.2-0.1,0.4,0,0.5c0.2,0.1,0.4,0.1,0.5,0s0.1-0.4,0-0.5C73.1,99.3,72.8,99.3,72.7,99.4z"/>
			<path class="st21" d="M72.8,103.2c-0.1,0.1-0.1,0.3,0,0.4c0.1,0.1,0.3,0.1,0.4,0c0.1-0.1,0.1-0.3,0-0.4
				C73.1,103.1,72.9,103.1,72.8,103.2z"/>
			<path class="st21" d="M72.8,105.3c-0.1,0.1-0.1,0.3,0,0.4c0.1,0.1,0.3,0.1,0.4,0c0.1-0.1,0.1-0.3,0-0.4
				C73.1,105.2,72.9,105.2,72.8,105.3z"/>
			<path class="st21" d="M79.8,110.5c-0.2,0.2-0.2,0.5,0,0.7c0.2,0.2,0.5,0.2,0.7,0c0.2-0.2,0.2-0.5,0-0.7
				C80.3,110.2,80,110.3,79.8,110.5z"/>
			<path class="st21" d="M86,110.5c-0.1,0.1-0.1,0.3,0,0.4c0.1,0.1,0.3,0.1,0.4,0c0.1-0.1,0.1-0.3,0-0.4
				C86.3,110.4,86.1,110.4,86,110.5z"/>
			<path class="st21" d="M80.6,131.9c-0.2,0.2-0.2,0.5,0,0.7c0.2,0.2,0.5,0.2,0.7,0c0.2-0.2,0.2-0.5,0-0.7
				C81.1,131.6,80.8,131.7,80.6,131.9z"/>
			<path class="st21" d="M98.4,143.4c-0.1,0.1-0.1,0.3,0,0.4c0.1,0.1,0.3,0.1,0.4,0c0.1-0.1,0.1-0.3,0-0.4
				C98.7,143.3,98.5,143.3,98.4,143.4z"/>
			<path class="st21" d="M101.2,136.1c-0.1,0.1-0.1,0.3,0,0.4c0.1,0.1,0.3,0.1,0.4,0c0.1-0.1,0.1-0.3,0-0.4
				C101.5,136,101.3,136,101.2,136.1z"/>
			<path class="st21" d="M83.6,118.9c-0.4,0.5-0.4,1.2,0.1,1.7c0.5,0.4,1.2,0.4,1.7-0.1c0.4-0.5,0.4-1.2-0.1-1.7
				C84.8,118.4,84.1,118.5,83.6,118.9z"/>
			<path class="st21" d="M93.4,120.5c-0.3,0.3-0.2,0.7,0,1c0.3,0.3,0.7,0.2,1,0c0.3-0.3,0.2-0.7,0-1
				C94.1,120.2,93.6,120.2,93.4,120.5z"/>
		</g>
	</g>
</g>
</svg>
